<?xml version="1.0" encoding="UTF-8"?>
<svg width="394px" height="81px" viewBox="0 0 394 81" version="1.1" xmlns="http://www.w3.org/2000/svg" xmlns:xlink="http://www.w3.org/1999/xlink">
    <title>Untitled</title>
    <g id="Page-1" stroke="none" stroke-width="1" fill="none" fill-rule="evenodd">
        <path d="M16.037,60 L16.037,4.7 L5.135,4.7 L5.135,60 L16.037,60 Z M36.024,60 L36.024,38.67 C36.024,35.4046667 36.814,32.9556667 38.394,31.323 C39.974,29.6903333 42.0806667,28.874 44.714,28.874 C47.084,28.874 48.98,29.5718333 50.402,30.9675 C51.824,32.3631667 52.535,34.3776667 52.535,37.011 L52.535,37.011 L52.535,60 L62.726,60 L62.726,35.747 C62.726,30.6383333 61.3171667,26.6356667 58.4995,23.739 C55.6818333,20.8423333 52.1136667,19.394 47.795,19.394 C42.423,19.394 38.4993333,21.2373333 36.024,24.924 L36.024,24.924 L36.024,20.5 L25.833,20.5 L25.833,60 L36.024,60 Z M85.32,61.106 C89.8493333,61.106 93.6281667,60.0131667 96.6565,57.8275 C99.6848333,55.6418333 101.199,52.5213333 101.199,48.466 C101.199,45.78 100.501167,43.5416667 99.1055,41.751 C97.7098333,39.9603333 96.0113333,38.6831667 94.01,37.9195 C92.0086667,37.1558333 90.0073333,36.5238333 88.006,36.0235 C86.0046667,35.5231667 84.3061667,34.9438333 82.9105,34.2855 C81.5148333,33.6271667 80.817,32.7713333 80.817,31.718 C80.817,30.7173333 81.2515,29.9273333 82.1205,29.348 C82.9895,28.7686667 84.0823333,28.479 85.399,28.479 C88.3483333,28.479 90.455,29.822 91.719,32.508 L91.719,32.508 L100.409,27.768 C98.8816667,25.082 96.8013333,23.0148333 94.168,21.5665 C91.5346667,20.1181667 88.6116667,19.394 85.399,19.394 C81.133,19.394 77.5648333,20.5131667 74.6945,22.7515 C71.8241667,24.9898333 70.389,28.0576667 70.389,31.955 C70.389,34.5356667 71.0868333,36.6818333 72.4825,38.3935 C73.8781667,40.1051667 75.5766667,41.356 77.578,42.146 C79.5793333,42.936 81.5806667,43.5943333 83.582,44.121 C85.5833333,44.6476667 87.2818333,45.2401667 88.6775,45.8985 C90.0731667,46.5568333 90.771,47.4126667 90.771,48.466 C90.771,50.7306667 88.954,51.863 85.32,51.863 C81.3173333,51.863 78.7366667,50.1513333 77.578,46.728 L77.578,46.728 L68.73,51.705 C71.6793333,57.9723333 77.2093333,61.106 85.32,61.106 Z M114.3525,58.025 C117.222833,60.1316667 122.160333,60.79 129.165,60 L129.165,60 L129.165,50.757 C127.216333,50.8623333 125.583667,50.8755 124.267,50.7965 C122.950333,50.7175 121.949667,50.362 121.265,49.73 C120.580333,49.098 120.238,48.0973333 120.238,46.728 L120.238,46.728 L120.238,30.296 L129.165,30.296 L129.165,20.5 L120.238,20.5 L120.238,9.44 L110.047,12.521 L110.047,20.5 L103.174,20.5 L103.174,30.296 L110.047,30.296 L110.047,46.728 C110.047,52.1526667 111.482167,55.9183333 114.3525,58.025 Z M152.312,61.106 C157.842,61.106 162.134333,59.1836667 165.189,55.339 L165.189,55.339 L165.189,60 L175.38,60 L175.38,20.5 L165.189,20.5 L165.189,25.161 C162.134333,21.3163333 157.842,19.394 152.312,19.394 C147.045333,19.394 142.529167,21.4085 138.7635,25.4375 C134.997833,29.4665 133.115,34.404 133.115,40.25 C133.115,46.096 134.997833,51.0335 138.7635,55.0625 C142.529167,59.0915 147.045333,61.106 152.312,61.106 Z M154.208,51.389 C151.048,51.389 148.441,50.362 146.387,48.308 C144.333,46.2013333 143.306,43.5153333 143.306,40.25 C143.306,36.9846667 144.333,34.3118333 146.387,32.2315 C148.441,30.1511667 151.048,29.111 154.208,29.111 C157.368,29.111 159.988167,30.1511667 162.0685,32.2315 C164.148833,34.3118333 165.189,36.9846667 165.189,40.25 C165.189,43.5153333 164.148833,46.1881667 162.0685,48.2685 C159.988167,50.3488333 157.368,51.389 154.208,51.389 Z M204.215,76.906 C209.903,76.906 214.7615,75.2996667 218.7905,72.087 C222.8195,68.8743333 224.834,64.2133333 224.834,58.104 L224.834,58.104 L224.834,20.5 L214.88,20.5 L214.88,25.398 C211.878,21.3953333 207.664667,19.394 202.24,19.394 C196.71,19.394 192.049,21.369 188.257,25.319 C184.465,29.269 182.569,34.0353333 182.569,39.618 C182.569,45.2533333 184.451833,50.0328333 188.2175,53.9565 C191.983167,57.8801667 196.657333,59.842 202.24,59.842 C207.664667,59.842 211.878,57.8406667 214.88,53.838 L214.88,53.838 L214.88,58.104 C214.88,61.2113333 213.958333,63.6076667 212.115,65.293 C210.271667,66.9783333 207.743667,67.821 204.531,67.821 C199.633,67.821 196.183333,65.9776667 194.182,62.291 L194.182,62.291 L185.492,67.268 C187.23,70.428 189.7185,72.8243333 192.9575,74.457 C196.1965,76.0896667 199.949,76.906 204.215,76.906 Z M203.82,50.441 C200.607333,50.441 197.947667,49.4403333 195.841,47.439 C193.787,45.385 192.76,42.778 192.76,39.618 C192.76,36.5106667 193.800167,33.9431667 195.8805,31.9155 C197.960833,29.8878333 200.607333,28.874 203.82,28.874 C207.032667,28.874 209.679167,29.8878333 211.7595,31.9155 C213.839833,33.9431667 214.88,36.5106667 214.88,39.618 C214.88,42.778 213.839833,45.3718333 211.7595,47.3995 C209.679167,49.4271667 207.032667,50.441 203.82,50.441 Z M244.268,60 L244.268,41.119 C244.268,37.327 245.4925,34.6146667 247.9415,32.982 C250.3905,31.3493333 253.168667,30.7173333 256.276,31.086 L256.276,31.086 L256.276,19.71 C253.59,19.71 251.154167,20.342 248.9685,21.606 C246.782833,22.87 245.216,24.766 244.268,27.294 L244.268,27.294 L244.268,20.5 L234.077,20.5 L234.077,60 L244.268,60 Z M280.292,61.106 C287.876,61.106 293.616667,58.2883333 297.514,52.653 L297.514,52.653 L289.298,47.913 C287.296667,50.5463333 284.347333,51.863 280.45,51.863 C274.393333,51.863 270.680333,49.3876667 269.311,44.437 L269.311,44.437 L299.094,44.437 C299.357333,42.9623333 299.489,41.5666667 299.489,40.25 C299.489,34.3513333 297.606167,29.4006667 293.8405,25.398 C290.074833,21.3953333 285.295333,19.394 279.502,19.394 C273.392667,19.394 268.389333,21.3821667 264.492,25.3585 C260.594667,29.3348333 258.646,34.2986667 258.646,40.25 C258.646,46.254 260.621,51.231 264.571,55.181 C268.521,59.131 273.761333,61.106 280.292,61.106 Z M289.298,36.537 L269.153,36.537 C269.732333,34.009 270.917333,32.0471667 272.708,30.6515 C274.498667,29.2558333 276.763333,28.558 279.502,28.558 C281.819333,28.558 283.8865,29.2163333 285.7035,30.533 C287.5205,31.8496667 288.718667,33.851 289.298,36.537 L289.298,36.537 Z M325.875,61.106 C333.459,61.106 339.199667,58.2883333 343.097,52.653 L343.097,52.653 L334.881,47.913 C332.879667,50.5463333 329.930333,51.863 326.033,51.863 C319.976333,51.863 316.263333,49.3876667 314.894,44.437 L314.894,44.437 L344.677,44.437 C344.940333,42.9623333 345.072,41.5666667 345.072,40.25 C345.072,34.3513333 343.189167,29.4006667 339.4235,25.398 C335.657833,21.3953333 330.878333,19.394 325.085,19.394 C318.975667,19.394 313.972333,21.3821667 310.075,25.3585 C306.177667,29.3348333 304.229,34.2986667 304.229,40.25 C304.229,46.254 306.204,51.231 310.154,55.181 C314.104,59.131 319.344333,61.106 325.875,61.106 Z M334.881,36.537 L314.736,36.537 C315.315333,34.009 316.500333,32.0471667 318.291,30.6515 C320.081667,29.2558333 322.346333,28.558 325.085,28.558 C327.402333,28.558 329.4695,29.2163333 331.2865,30.533 C333.1035,31.8496667 334.301667,33.851 334.881,36.537 L334.881,36.537 Z M362.373,60 L362.373,38.67 C362.373,35.4046667 363.163,32.9556667 364.743,31.323 C366.323,29.6903333 368.429667,28.874 371.063,28.874 C373.433,28.874 375.329,29.5718333 376.751,30.9675 C378.173,32.3631667 378.884,34.3776667 378.884,37.011 L378.884,37.011 L378.884,60 L389.075,60 L389.075,35.747 C389.075,30.6383333 387.666167,26.6356667 384.8485,23.739 C382.030833,20.8423333 378.462667,19.394 374.144,19.394 C368.772,19.394 364.848333,21.2373333 362.373,24.924 L362.373,24.924 L362.373,20.5 L352.182,20.5 L352.182,60 L362.373,60 Z" id="Instagreen" fill="#FFFFFF" fill-rule="nonzero"></path>
    </g>
</svg>