<?xml version="1.0" encoding="UTF-8"?>
<svg width="152px" height="32px" viewBox="0 0 152 32" version="1.1" xmlns="http://www.w3.org/2000/svg" xmlns:xlink="http://www.w3.org/1999/xlink">
    <title>Untitled 2 Copy</title>
    <g id="Page-1" stroke="none" stroke-width="1" fill="none" fill-rule="evenodd">
        <path d="M7.09,23 L7.09,2 L2.95,2 L2.95,23 L7.09,23 Z M14.68,23 L14.68,14.9 C14.68,13.66 14.98,12.73 15.58,12.11 C16.18,11.49 16.98,11.18 17.98,11.18 C18.88,11.18 19.6,11.445 20.14,11.975 C20.68,12.505 20.95,13.27 20.95,14.27 L20.95,14.27 L20.95,23 L24.82,23 L24.82,13.79 C24.82,11.85 24.285,10.33 23.215,9.23 C22.145,8.13 20.79,7.58 19.15,7.58 C17.11,7.58 15.62,8.28 14.68,9.68 L14.68,9.68 L14.68,8 L10.81,8 L10.81,23 L14.68,23 Z M33.4,23.42 C35.12,23.42 36.555,23.005 37.705,22.175 C38.855,21.345 39.43,20.16 39.43,18.62 C39.43,17.6 39.165,16.75 38.635,16.07 C38.105,15.39 37.46,14.905 36.7,14.615 C35.94,14.325 35.18,14.085 34.42,13.895 C33.66,13.705 33.015,13.485 32.485,13.235 C31.955,12.985 31.69,12.66 31.69,12.26 C31.69,11.88 31.855,11.58 32.185,11.36 C32.515,11.14 32.93,11.03 33.43,11.03 C34.55,11.03 35.35,11.54 35.83,12.56 L35.83,12.56 L39.13,10.76 C38.55,9.74 37.76,8.955 36.76,8.405 C35.76,7.855 34.65,7.58 33.43,7.58 C31.81,7.58 30.455,8.005 29.365,8.855 C28.275,9.705 27.73,10.87 27.73,12.35 C27.73,13.33 27.995,14.145 28.525,14.795 C29.055,15.445 29.7,15.92 30.46,16.22 C31.22,16.52 31.98,16.77 32.74,16.97 C33.5,17.17 34.145,17.395 34.675,17.645 C35.205,17.895 35.47,18.22 35.47,18.62 C35.47,19.48 34.78,19.91 33.4,19.91 C31.88,19.91 30.9,19.26 30.46,17.96 L30.46,17.96 L27.1,19.85 C28.22,22.23 30.32,23.42 33.4,23.42 Z M44.425,22.25 C45.515,23.05 47.39,23.3 50.05,23 L50.05,23 L50.05,19.49 C49.31,19.53 48.69,19.535 48.19,19.505 C47.69,19.475 47.31,19.34 47.05,19.1 C46.79,18.86 46.66,18.48 46.66,17.96 L46.66,17.96 L46.66,11.72 L50.05,11.72 L50.05,8 L46.66,8 L46.66,3.8 L42.79,4.97 L42.79,8 L40.18,8 L40.18,11.72 L42.79,11.72 L42.79,17.96 C42.79,20.02 43.335,21.45 44.425,22.25 Z M58.84,23.42 C60.94,23.42 62.57,22.69 63.73,21.23 L63.73,21.23 L63.73,23 L67.6,23 L67.6,8 L63.73,8 L63.73,9.77 C62.57,8.31 60.94,7.58 58.84,7.58 C56.84,7.58 55.125,8.345 53.695,9.875 C52.265,11.405 51.55,13.28 51.55,15.5 C51.55,17.72 52.265,19.595 53.695,21.125 C55.125,22.655 56.84,23.42 58.84,23.42 Z M59.56,19.73 C58.36,19.73 57.37,19.34 56.59,18.56 C55.81,17.76 55.42,16.74 55.42,15.5 C55.42,14.26 55.81,13.245 56.59,12.455 C57.37,11.665 58.36,11.27 59.56,11.27 C60.76,11.27 61.755,11.665 62.545,12.455 C63.335,13.245 63.73,14.26 63.73,15.5 C63.73,16.74 63.335,17.755 62.545,18.545 C61.755,19.335 60.76,19.73 59.56,19.73 Z M78.55,29.42 C80.71,29.42 82.555,28.81 84.085,27.59 C85.615,26.37 86.38,24.6 86.38,22.28 L86.38,22.28 L86.38,8 L82.6,8 L82.6,9.86 C81.46,8.34 79.86,7.58 77.8,7.58 C75.7,7.58 73.93,8.33 72.49,9.83 C71.05,11.33 70.33,13.14 70.33,15.26 C70.33,17.4 71.045,19.215 72.475,20.705 C73.905,22.195 75.68,22.94 77.8,22.94 C79.86,22.94 81.46,22.18 82.6,20.66 L82.6,20.66 L82.6,22.28 C82.6,23.46 82.25,24.37 81.55,25.01 C80.85,25.65 79.89,25.97 78.67,25.97 C76.81,25.97 75.5,25.27 74.74,23.87 L74.74,23.87 L71.44,25.76 C72.1,26.96 73.045,27.87 74.275,28.49 C75.505,29.11 76.93,29.42 78.55,29.42 Z M78.4,19.37 C77.18,19.37 76.17,18.99 75.37,18.23 C74.59,17.45 74.2,16.46 74.2,15.26 C74.2,14.08 74.595,13.105 75.385,12.335 C76.175,11.565 77.18,11.18 78.4,11.18 C79.62,11.18 80.625,11.565 81.415,12.335 C82.205,13.105 82.6,14.08 82.6,15.26 C82.6,16.46 82.205,17.445 81.415,18.215 C80.625,18.985 79.62,19.37 78.4,19.37 Z M93.76,23 L93.76,15.83 C93.76,14.39 94.225,13.36 95.155,12.74 C96.085,12.12 97.14,11.88 98.32,12.02 L98.32,12.02 L98.32,7.7 C97.3,7.7 96.375,7.94 95.545,8.42 C94.715,8.9 94.12,9.62 93.76,10.58 L93.76,10.58 L93.76,8 L89.89,8 L89.89,23 L93.76,23 Z M107.44,23.42 C110.32,23.42 112.5,22.35 113.98,20.21 L113.98,20.21 L110.86,18.41 C110.1,19.41 108.98,19.91 107.5,19.91 C105.2,19.91 103.79,18.97 103.27,17.09 L103.27,17.09 L114.58,17.09 C114.68,16.53 114.73,16 114.73,15.5 C114.73,13.26 114.015,11.38 112.585,9.86 C111.155,8.34 109.34,7.58 107.14,7.58 C104.82,7.58 102.92,8.335 101.44,9.845 C99.96,11.355 99.22,13.24 99.22,15.5 C99.22,17.78 99.97,19.67 101.47,21.17 C102.97,22.67 104.96,23.42 107.44,23.42 Z M110.86,14.09 L103.21,14.09 C103.43,13.13 103.88,12.385 104.56,11.855 C105.24,11.325 106.1,11.06 107.14,11.06 C108.02,11.06 108.805,11.31 109.495,11.81 C110.185,12.31 110.64,13.07 110.86,14.09 L110.86,14.09 Z M124.75,23.42 C127.63,23.42 129.81,22.35 131.29,20.21 L131.29,20.21 L128.17,18.41 C127.41,19.41 126.29,19.91 124.81,19.91 C122.51,19.91 121.1,18.97 120.58,17.09 L120.58,17.09 L131.89,17.09 C131.99,16.53 132.04,16 132.04,15.5 C132.04,13.26 131.325,11.38 129.895,9.86 C128.465,8.34 126.65,7.58 124.45,7.58 C122.13,7.58 120.23,8.335 118.75,9.845 C117.27,11.355 116.53,13.24 116.53,15.5 C116.53,17.78 117.28,19.67 118.78,21.17 C120.28,22.67 122.27,23.42 124.75,23.42 Z M128.17,14.09 L120.52,14.09 C120.74,13.13 121.19,12.385 121.87,11.855 C122.55,11.325 123.41,11.06 124.45,11.06 C125.33,11.06 126.115,11.31 126.805,11.81 C127.495,12.31 127.95,13.07 128.17,14.09 L128.17,14.09 Z M138.61,23 L138.61,14.9 C138.61,13.66 138.91,12.73 139.51,12.11 C140.11,11.49 140.91,11.18 141.91,11.18 C142.81,11.18 143.53,11.445 144.07,11.975 C144.61,12.505 144.88,13.27 144.88,14.27 L144.88,14.27 L144.88,23 L148.75,23 L148.75,13.79 C148.75,11.85 148.215,10.33 147.145,9.23 C146.075,8.13 144.72,7.58 143.08,7.58 C141.04,7.58 139.55,8.28 138.61,9.68 L138.61,9.68 L138.61,8 L134.74,8 L134.74,23 L138.61,23 Z" id="Instagreen" fill="#12c76c" fill-rule="nonzero"></path>
    </g>
</svg>