<?xml version="1.0" encoding="UTF-8"?>
<svg width="293px" height="55px" viewBox="0 0 293 55" version="1.1" xmlns="http://www.w3.org/2000/svg" xmlns:xlink="http://www.w3.org/1999/xlink">
    <title>Untitled 2</title>
    <g id="Page-1" stroke="none" stroke-width="1" fill="none" fill-rule="evenodd">
        <path d="M9.18,42 L9.18,0 L0.9,0 L0.9,42 L9.18,42 Z M24.36,42 L24.36,25.8 C24.36,23.32 24.96,21.46 26.16,20.22 C27.36,18.98 28.96,18.36 30.96,18.36 C32.76,18.36 34.2,18.89 35.28,19.95 C36.36,21.01 36.9,22.54 36.9,24.54 L36.9,24.54 L36.9,42 L44.64,42 L44.64,23.58 C44.64,19.7 43.57,16.66 41.43,14.46 C39.29,12.26 36.58,11.16 33.3,11.16 C29.22,11.16 26.24,12.56 24.36,15.36 L24.36,15.36 L24.36,12 L16.62,12 L16.62,42 L24.36,42 Z M61.8,42.84 C65.24,42.84 68.11,42.01 70.41,40.35 C72.71,38.69 73.86,36.32 73.86,33.24 C73.86,31.2 73.33,29.5 72.27,28.14 C71.21,26.78 69.92,25.81 68.4,25.23 C66.88,24.65 65.36,24.17 63.84,23.79 C62.32,23.41 61.03,22.97 59.97,22.47 C58.91,21.97 58.38,21.32 58.38,20.52 C58.38,19.76 58.71,19.16 59.37,18.72 C60.03,18.28 60.86,18.06 61.86,18.06 C64.1,18.06 65.7,19.08 66.66,21.12 L66.66,21.12 L73.26,17.52 C72.1,15.48 70.52,13.91 68.52,12.81 C66.52,11.71 64.3,11.16 61.86,11.16 C58.62,11.16 55.91,12.01 53.73,13.71 C51.55,15.41 50.46,17.74 50.46,20.7 C50.46,22.66 50.99,24.29 52.05,25.59 C53.11,26.89 54.4,27.84 55.92,28.44 C57.44,29.04 58.96,29.54 60.48,29.94 C62,30.34 63.29,30.79 64.35,31.29 C65.41,31.79 65.94,32.44 65.94,33.24 C65.94,34.96 64.56,35.82 61.8,35.82 C58.76,35.82 56.8,34.52 55.92,31.92 L55.92,31.92 L49.2,35.7 C51.44,40.46 55.64,42.84 61.8,42.84 Z M83.85,40.5 C86.03,42.1 89.78,42.6 95.1,42 L95.1,42 L95.1,34.98 C93.62,35.06 92.38,35.07 91.38,35.01 C90.38,34.95 89.62,34.68 89.1,34.2 C88.58,33.72 88.32,32.96 88.32,31.92 L88.32,31.92 L88.32,19.44 L95.1,19.44 L95.1,12 L88.32,12 L88.32,3.6 L80.58,5.94 L80.58,12 L75.36,12 L75.36,19.44 L80.58,19.44 L80.58,31.92 C80.58,36.04 81.67,38.9 83.85,40.5 Z M112.68,42.84 C116.88,42.84 120.14,41.38 122.46,38.46 L122.46,38.46 L122.46,42 L130.2,42 L130.2,12 L122.46,12 L122.46,15.54 C120.14,12.62 116.88,11.16 112.68,11.16 C108.68,11.16 105.25,12.69 102.39,15.75 C99.53,18.81 98.1,22.56 98.1,27 C98.1,31.44 99.53,35.19 102.39,38.25 C105.25,41.31 108.68,42.84 112.68,42.84 Z M114.12,35.46 C111.72,35.46 109.74,34.68 108.18,33.12 C106.62,31.52 105.84,29.48 105.84,27 C105.84,24.52 106.62,22.49 108.18,20.91 C109.74,19.33 111.72,18.54 114.12,18.54 C116.52,18.54 118.51,19.33 120.09,20.91 C121.67,22.49 122.46,24.52 122.46,27 C122.46,29.48 121.67,31.51 120.09,33.09 C118.51,34.67 116.52,35.46 114.12,35.46 Z M152.1,54.84 C156.42,54.84 160.11,53.62 163.17,51.18 C166.23,48.74 167.76,45.2 167.76,40.56 L167.76,40.56 L167.76,12 L160.2,12 L160.2,15.72 C157.92,12.68 154.72,11.16 150.6,11.16 C146.4,11.16 142.86,12.66 139.98,15.66 C137.1,18.66 135.66,22.28 135.66,26.52 C135.66,30.8 137.09,34.43 139.95,37.41 C142.81,40.39 146.36,41.88 150.6,41.88 C154.72,41.88 157.92,40.36 160.2,37.32 L160.2,37.32 L160.2,40.56 C160.2,42.92 159.5,44.74 158.1,46.02 C156.7,47.3 154.78,47.94 152.34,47.94 C148.62,47.94 146,46.54 144.48,43.74 L144.48,43.74 L137.88,47.52 C139.2,49.92 141.09,51.74 143.55,52.98 C146.01,54.22 148.86,54.84 152.1,54.84 Z M151.8,34.74 C149.36,34.74 147.34,33.98 145.74,32.46 C144.18,30.9 143.4,28.92 143.4,26.52 C143.4,24.16 144.19,22.21 145.77,20.67 C147.35,19.13 149.36,18.36 151.8,18.36 C154.24,18.36 156.25,19.13 157.83,20.67 C159.41,22.21 160.2,24.16 160.2,26.52 C160.2,28.92 159.41,30.89 157.83,32.43 C156.25,33.97 154.24,34.74 151.8,34.74 Z M182.52,42 L182.52,27.66 C182.52,24.78 183.45,22.72 185.31,21.48 C187.17,20.24 189.28,19.76 191.64,20.04 L191.64,20.04 L191.64,11.4 C189.6,11.4 187.75,11.88 186.09,12.84 C184.43,13.8 183.24,15.24 182.52,17.16 L182.52,17.16 L182.52,12 L174.78,12 L174.78,42 L182.52,42 Z M209.88,42.84 C215.64,42.84 220,40.7 222.96,36.42 L222.96,36.42 L216.72,32.82 C215.2,34.82 212.96,35.82 210,35.82 C205.4,35.82 202.58,33.94 201.54,30.18 L201.54,30.18 L224.16,30.18 C224.36,29.06 224.46,28 224.46,27 C224.46,22.52 223.03,18.76 220.17,15.72 C217.31,12.68 213.68,11.16 209.28,11.16 C204.64,11.16 200.84,12.67 197.88,15.69 C194.92,18.71 193.44,22.48 193.44,27 C193.44,31.56 194.94,35.34 197.94,38.34 C200.94,41.34 204.92,42.84 209.88,42.84 Z M216.72,24.18 L201.42,24.18 C201.86,22.26 202.76,20.77 204.12,19.71 C205.48,18.65 207.2,18.12 209.28,18.12 C211.04,18.12 212.61,18.62 213.99,19.62 C215.37,20.62 216.28,22.14 216.72,24.18 L216.72,24.18 Z M244.5,42.84 C250.26,42.84 254.62,40.7 257.58,36.42 L257.58,36.42 L251.34,32.82 C249.82,34.82 247.58,35.82 244.62,35.82 C240.02,35.82 237.2,33.94 236.16,30.18 L236.16,30.18 L258.78,30.18 C258.98,29.06 259.08,28 259.08,27 C259.08,22.52 257.65,18.76 254.79,15.72 C251.93,12.68 248.3,11.16 243.9,11.16 C239.26,11.16 235.46,12.67 232.5,15.69 C229.54,18.71 228.06,22.48 228.06,27 C228.06,31.56 229.56,35.34 232.56,38.34 C235.56,41.34 239.54,42.84 244.5,42.84 Z M251.34,24.18 L236.04,24.18 C236.48,22.26 237.38,20.77 238.74,19.71 C240.1,18.65 241.82,18.12 243.9,18.12 C245.66,18.12 247.23,18.62 248.61,19.62 C249.99,20.62 250.9,22.14 251.34,24.18 L251.34,24.18 Z M272.22,42 L272.22,25.8 C272.22,23.32 272.82,21.46 274.02,20.22 C275.22,18.98 276.82,18.36 278.82,18.36 C280.62,18.36 282.06,18.89 283.14,19.95 C284.22,21.01 284.76,22.54 284.76,24.54 L284.76,24.54 L284.76,42 L292.5,42 L292.5,23.58 C292.5,19.7 291.43,16.66 289.29,14.46 C287.15,12.26 284.44,11.16 281.16,11.16 C277.08,11.16 274.1,12.56 272.22,15.36 L272.22,15.36 L272.22,12 L264.48,12 L264.48,42 L272.22,42 Z" id="Instagreen" fill="#FFFFFF" fill-rule="nonzero"></path>
    </g>
</svg>